<?xml version="1.0" encoding="utf-8"?>
<!-- Generator: Adobe Illustrator 23.0.4, SVG Export Plug-In . SVG Version: 6.00 Build 0)  -->
<svg version="1.1" id="Livello_1" xmlns="http://www.w3.org/2000/svg" xmlns:xlink="http://www.w3.org/1999/xlink" x="0px" y="0px"
	 viewBox="0 0 500 500" style="enable-background:new 0 0 500 500;" xml:space="preserve">
<style type="text/css">
	.st0{fill:#FF5B5B;}
	.st1{fill:#04FF8E;}
	.st2{fill:#FFF152;}
	.st3{fill:#8E2EFF;}
	.st4{fill:#00C5FF;}
	.st5{fill:#FFFFFF;}
</style>
<g>
	<rect x="0" y="221.2" class="st0" width="158.9" height="88.2"/>
	<rect x="170.6" y="221.2" class="st1" width="158.9" height="123.8"/>
	<rect x="341.1" y="221.2" class="st2" width="158.9" height="104"/>
	<rect x="0" y="323" class="st3" width="158.9" height="112.9"/>
	<rect x="170.6" y="358.3" class="st4" width="158.9" height="141.7"/>
</g>
<rect x="341.1" y="336.7" class="st0" width="158.9" height="69.3"/>
<g>
	<g>
		<rect x="3.5" y="128.3" class="st5" width="493" height="71.6"/>
		<path d="M493,131.8v64.6H7v-64.6H493 M500,124.8H0v78.6h500V124.8L500,124.8z"/>
	</g>
	<path d="M460.7,141.1c-11.8,0-21.4,9.6-21.4,21.4c0,4.7,1.5,8.9,4,12.5l-6,6c-1.4,1.4-1.4,3.6,0,5c0.7,0.7,1.6,1,2.5,1
		s1.8-0.3,2.5-1l6-6c3.5,2.5,7.8,4,12.5,4c11.8,0,21.4-9.6,21.4-21.4C482.1,150.7,472.5,141.1,460.7,141.1z M460.7,177
		c-8,0-14.4-6.5-14.4-14.4s6.5-14.4,14.4-14.4s14.4,6.5,14.4,14.4S468.7,177,460.7,177z"/>
</g>
<g>
	<g>
		<path d="M0,1.4h21c2.8,0,5.4,0.3,7.8,0.8c2.5,0.5,4.6,1.4,6.5,2.7c1.9,1.3,3.3,2.9,4.4,5c1.1,2.1,1.6,4.8,1.6,7.9
			c0,3.8-1,7.1-3,9.8c-2,2.7-4.9,4.4-8.7,5.1l13.8,22.9H29.1L17.8,33.9h-5.9v21.7H0V1.4z M11.9,23.8h7c1.1,0,2.2,0,3.4-0.1
			c1.2-0.1,2.3-0.3,3.3-0.7c1-0.4,1.8-1,2.4-1.8c0.6-0.8,1-2,1-3.4c0-1.4-0.3-2.5-0.8-3.3c-0.6-0.8-1.3-1.4-2.1-1.9
			c-0.9-0.4-1.9-0.7-3-0.9c-1.1-0.2-2.2-0.2-3.3-0.2h-7.8V23.8z"/>
		<path d="M49.3,1.4h36.8v11H61.2v10.1h23.5v11H61.2v11h26.2v11H49.3V1.4z"/>
		<path d="M114.1,1.4h9.9l23.6,54.2H134l-4.7-11.5h-21l-4.5,11.5H90.7L114.1,1.4z M118.7,17.1L112.1,34h13.2L118.7,17.1z"/>
		<path d="M187.6,15.5c-1.2-1.4-2.6-2.5-4.3-3.3c-1.7-0.8-3.7-1.1-5.9-1.1c-2.2,0-4.3,0.4-6.2,1.3c-1.9,0.9-3.6,2.1-5,3.6
			c-1.4,1.6-2.5,3.4-3.3,5.5c-0.8,2.1-1.2,4.5-1.2,7c0,2.6,0.4,4.9,1.2,7c0.8,2.1,1.9,4,3.3,5.5c1.4,1.6,3,2.8,4.9,3.6
			c1.9,0.9,3.9,1.3,6,1.3c2.4,0,4.6-0.5,6.5-1.5c1.9-1,3.4-2.4,4.7-4.3l9.9,7.4c-2.3,3.2-5.2,5.6-8.7,7.1c-3.5,1.5-7.1,2.3-10.9,2.3
			c-4.2,0-8.1-0.7-11.7-2c-3.6-1.3-6.7-3.2-9.3-5.7c-2.6-2.5-4.6-5.5-6.1-9s-2.2-7.4-2.2-11.8c0-4.3,0.7-8.3,2.2-11.8s3.5-6.5,6.1-9
			c2.6-2.5,5.7-4.4,9.3-5.7c3.6-1.3,7.5-2,11.7-2c1.5,0,3.1,0.1,4.8,0.4c1.7,0.3,3.3,0.7,4.9,1.3c1.6,0.6,3.1,1.4,4.6,2.4
			c1.5,1,2.8,2.3,4,3.7L187.6,15.5z"/>
		<path d="M214.3,11.9h-15.5V1.4h42.8v10.6h-15.5v43.6h-11.9V11.9z"/>
		<path d="M317.9,51.7c-3.5,1.8-7.2,3.2-11,4c-3.8,0.8-7.7,1.2-11.7,1.2c-4.2,0-8.1-0.7-11.7-2c-3.6-1.3-6.7-3.2-9.3-5.7
			c-2.6-2.5-4.6-5.5-6.1-9c-1.5-3.5-2.2-7.4-2.2-11.8c0-4.3,0.7-8.3,2.2-11.8c1.5-3.5,3.5-6.5,6.1-9c2.6-2.5,5.7-4.4,9.3-5.7
			c3.6-1.3,7.5-2,11.7-2c4.3,0,8.3,0.5,12,1.6c3.6,1,6.8,2.8,9.6,5.4l-8.4,9.2c-1.6-1.7-3.5-3-5.5-3.8c-2-0.9-4.6-1.3-7.7-1.3
			c-2.6,0-4.9,0.4-6.9,1.3c-2.1,0.9-3.8,2.1-5.3,3.6c-1.5,1.6-2.6,3.4-3.4,5.5c-0.8,2.1-1.2,4.5-1.2,7c0,2.6,0.4,4.9,1.2,7
			c0.8,2.1,1.9,4,3.4,5.5c1.5,1.6,3.3,2.8,5.3,3.6c2.1,0.9,4.4,1.3,6.9,1.3c2.6,0,4.8-0.3,6.7-0.9c1.9-0.6,3.4-1.2,4.5-1.8v-8.8
			h-9.7v-11h21.2V51.7z"/>
		<path d="M327.5,1.4h11.9v54.2h-11.9V1.4z"/>
		<path d="M349.5,1.4h20.1c2.8,0,5.5,0.3,8,0.8c2.5,0.5,4.7,1.4,6.5,2.6c1.9,1.3,3.3,2.9,4.4,5c1.1,2.1,1.6,4.8,1.6,8
			c0,3.2-0.5,5.8-1.5,8s-2.4,3.9-4.2,5.1c-1.8,1.3-3.9,2.2-6.4,2.7c-2.4,0.5-5.1,0.8-8,0.8h-8.7v21.1h-11.9V1.4z M361.4,24.3h8
			c1.1,0,2.1-0.1,3.1-0.3c1-0.2,1.9-0.5,2.7-1c0.8-0.5,1.4-1.1,1.9-2c0.5-0.8,0.7-1.9,0.7-3.2c0-1.4-0.3-2.5-1-3.3
			c-0.6-0.8-1.5-1.5-2.4-2c-1-0.5-2.1-0.8-3.3-0.9c-1.2-0.1-2.4-0.2-3.5-0.2h-6.1V24.3z"/>
		<path d="M396.9,1.4h11.9v20.2H432V1.4H444v54.2H432V32.1h-23.2v23.4h-11.9V1.4z"/>
		<path d="M467.5,32.4L447.2,1.4H462l11.5,20.3l12.2-20.3h14.2l-20.4,31.1v23.1h-11.9V32.4z"/>
	</g>
	<g>
		<path d="M21.9,74.4c-0.7-0.8-1.6-1.5-2.7-1.9c-1.1-0.4-2.2-0.6-3.3-0.6c-0.6,0-1.2,0.1-1.9,0.2c-0.6,0.1-1.2,0.4-1.8,0.7
			c-0.6,0.3-1,0.7-1.4,1.2c-0.4,0.5-0.5,1.1-0.5,1.8c0,1.1,0.4,2,1.3,2.6c0.8,0.6,1.9,1.1,3.2,1.5c1.3,0.4,2.7,0.8,4.2,1.3
			c1.5,0.4,2.9,1,4.2,1.8c1.3,0.8,2.4,1.8,3.2,3.1c0.8,1.3,1.3,3.1,1.3,5.2c0,2.1-0.4,3.9-1.2,5.5c-0.8,1.6-1.8,2.8-3.2,3.9
			c-1.3,1-2.9,1.8-4.6,2.3c-1.7,0.5-3.6,0.7-5.5,0.7c-2.4,0-4.7-0.4-6.8-1.1c-2.1-0.7-4-1.9-5.8-3.6l5.9-6.5c0.8,1.1,1.9,2,3.2,2.6
			c1.3,0.6,2.6,0.9,4,0.9c0.7,0,1.4-0.1,2-0.2c0.7-0.2,1.3-0.4,1.9-0.7c0.5-0.3,1-0.7,1.3-1.2c0.3-0.5,0.5-1.1,0.5-1.8
			c0-1.1-0.4-2-1.3-2.7c-0.9-0.7-2-1.2-3.3-1.7c-1.3-0.5-2.7-0.9-4.2-1.4C9,86,7.6,85.4,6.3,84.6C5,83.8,3.9,82.8,3,81.5
			c-0.9-1.3-1.3-3-1.3-5c0-2,0.4-3.8,1.2-5.3c0.8-1.5,1.9-2.8,3.2-3.8c1.3-1,2.9-1.8,4.6-2.3c1.7-0.5,3.5-0.8,5.4-0.8
			c2.1,0,4.2,0.3,6.2,0.9c2,0.6,3.8,1.6,5.4,3L21.9,74.4z"/>
		<path d="M55.3,65.2h25.5v7.6H63.6v7h16.3v7.6H63.6v7.6h18.2v7.6H55.3V65.2z"/>
		<path d="M121.9,65.2h6.8l16.3,37.5h-9.3l-3.2-8H118l-3.1,8h-9.1L121.9,65.2z M125.1,76.2l-4.6,11.7h9.2L125.1,76.2z"/>
		<path d="M170.1,65.2h14.5c1.9,0,3.7,0.2,5.4,0.6c1.7,0.4,3.2,1,4.5,1.9c1.3,0.9,2.3,2,3.1,3.5c0.8,1.5,1.1,3.3,1.1,5.5
			c0,2.7-0.7,4.9-2.1,6.8c-1.4,1.9-3.4,3-6,3.5l9.5,15.9h-9.9l-7.8-15h-4.1v15h-8.3V65.2z M178.4,80.8h4.9c0.7,0,1.5,0,2.4-0.1
			c0.8-0.1,1.6-0.2,2.3-0.5c0.7-0.3,1.2-0.7,1.7-1.2c0.4-0.6,0.7-1.4,0.7-2.4c0-1-0.2-1.7-0.6-2.3c-0.4-0.6-0.9-1-1.5-1.3
			c-0.6-0.3-1.3-0.5-2.1-0.6c-0.8-0.1-1.5-0.2-2.3-0.2h-5.4V80.8z"/>
		<path d="M250.2,75c-0.8-1-1.8-1.7-3-2.3c-1.2-0.5-2.6-0.8-4.1-0.8s-3,0.3-4.3,0.9c-1.3,0.6-2.5,1.4-3.4,2.5
			c-1,1.1-1.7,2.4-2.3,3.8c-0.5,1.5-0.8,3.1-0.8,4.8c0,1.8,0.3,3.4,0.8,4.9c0.5,1.5,1.3,2.7,2.3,3.8c1,1.1,2.1,1.9,3.4,2.5
			c1.3,0.6,2.7,0.9,4.2,0.9c1.7,0,3.2-0.4,4.5-1.1c1.3-0.7,2.4-1.7,3.2-3l6.9,5.1c-1.6,2.2-3.6,3.9-6,4.9c-2.4,1.1-4.9,1.6-7.5,1.6
			c-2.9,0-5.6-0.5-8.1-1.4c-2.5-0.9-4.6-2.2-6.4-4c-1.8-1.7-3.2-3.8-4.2-6.2c-1-2.4-1.5-5.2-1.5-8.2c0-3,0.5-5.7,1.5-8.2
			c1-2.4,2.4-4.5,4.2-6.2c1.8-1.7,3.9-3,6.4-3.9c2.5-0.9,5.2-1.4,8.1-1.4c1.1,0,2.2,0.1,3.3,0.3c1.1,0.2,2.3,0.5,3.4,0.9
			c1.1,0.4,2.2,1,3.2,1.7c1,0.7,1.9,1.6,2.8,2.6L250.2,75z"/>
		<path d="M283.2,65.2h8.3v14h16.1v-14h8.3v37.5h-8.3V86.6h-16.1v16.2h-8.3V65.2z"/>
		<path d="M344.6,65.2h14c1.6,0,3.3,0.1,4.9,0.3c1.6,0.2,3.1,0.7,4.4,1.4c1.3,0.7,2.4,1.7,3.2,2.9c0.8,1.2,1.2,2.9,1.2,4.9
			c0,2.1-0.6,3.9-1.8,5.3c-1.2,1.4-2.7,2.4-4.7,3v0.1c1.2,0.2,2.4,0.5,3.4,1c1,0.5,1.9,1.2,2.6,2c0.7,0.8,1.3,1.7,1.7,2.8
			c0.4,1.1,0.6,2.2,0.6,3.4c0,2-0.4,3.6-1.3,5c-0.8,1.3-1.9,2.4-3.3,3.2c-1.3,0.8-2.9,1.4-4.5,1.7c-1.7,0.4-3.4,0.5-5,0.5h-15.4
			V65.2z M352.9,80.2h6c0.6,0,1.3-0.1,1.9-0.2c0.6-0.1,1.2-0.4,1.7-0.7c0.5-0.3,0.9-0.7,1.2-1.3c0.3-0.5,0.5-1.2,0.5-1.9
			c0-0.8-0.2-1.4-0.5-1.9c-0.3-0.5-0.8-0.9-1.3-1.2c-0.5-0.3-1.1-0.5-1.8-0.6c-0.7-0.1-1.3-0.2-2-0.2h-5.6V80.2z M352.9,95.8h7.4
			c0.6,0,1.3-0.1,1.9-0.2c0.7-0.1,1.2-0.4,1.8-0.7c0.5-0.4,1-0.8,1.3-1.4c0.3-0.6,0.5-1.3,0.5-2.1c0-0.9-0.2-1.6-0.7-2.1
			c-0.4-0.5-1-1-1.7-1.2c-0.7-0.3-1.4-0.5-2.2-0.6c-0.8-0.1-1.5-0.2-2.2-0.2h-6.3V95.8z"/>
		<path d="M398.2,84c0-3,0.5-5.7,1.5-8.2s2.4-4.5,4.2-6.2c1.8-1.7,3.9-3,6.4-3.9c2.5-0.9,5.2-1.4,8.1-1.4c2.9,0,5.6,0.5,8.1,1.4
			s4.6,2.2,6.4,3.9c1.8,1.7,3.2,3.8,4.2,6.2c1,2.4,1.5,5.2,1.5,8.2c0,3-0.5,5.7-1.5,8.2c-1,2.4-2.4,4.5-4.2,6.2
			c-1.8,1.7-3.9,3-6.4,4c-2.5,0.9-5.2,1.4-8.1,1.4c-2.9,0-5.6-0.5-8.1-1.4c-2.5-0.9-4.6-2.2-6.4-4c-1.8-1.7-3.2-3.8-4.2-6.2
			C398.7,89.7,398.2,87,398.2,84z M406.8,84c0,1.8,0.3,3.4,0.8,4.9c0.5,1.5,1.3,2.7,2.4,3.8c1,1.1,2.3,1.9,3.7,2.5
			c1.4,0.6,3,0.9,4.8,0.9c1.8,0,3.4-0.3,4.8-0.9c1.4-0.6,2.7-1.4,3.7-2.5c1-1.1,1.8-2.4,2.4-3.8c0.5-1.5,0.8-3.1,0.8-4.9
			c0-1.7-0.3-3.3-0.8-4.8c-0.5-1.5-1.3-2.8-2.4-3.8c-1-1.1-2.3-1.9-3.7-2.5c-1.4-0.6-3-0.9-4.8-0.9c-1.8,0-3.4,0.3-4.8,0.9
			c-1.4,0.6-2.7,1.4-3.7,2.5c-1,1.1-1.8,2.4-2.4,3.8C407.1,80.7,406.8,82.3,406.8,84z"/>
		<path d="M474.9,83.2l-12.4-17.9h10.4l8,13.1l7.7-13.1h10L486.4,83l13.6,19.8h-10.4l-9.2-15.1l-8.9,15.1h-9.8L474.9,83.2z"/>
	</g>
</g>
</svg>
